<svg xmlns="http://www.w3.org/2000/svg" width="903" height="566" viewBox="0 0 903 566">
<defs>
    <style>
      .cls-1 {
        fill: #7fc8af;
      }

      .cls-1, .cls-2 {
        fill-rule: evenodd;
      }

      .cls-2 {
        fill: #8ac9df;
      }
    </style>
  </defs>
  <path id="Фигура_1" data-name="Фигура 1" class="cls-1" d="M292,255v39h-3v10H118V513H100v10s-63,.5-63,0V513H25V503H14V290H24V277H14V64H24V54H37V44h63V54h56V44h1V40H139V2h88s0.17,39.17,0,39-10,0-10,0v3h2V54h17V64h14V50H240V16h18V6h83s0.144,10,0,10h20V239H289v16h3Z"/>
  <path id="Фигура_2" data-name="Фигура 2" class="cls-2" d="M343,306H305v3H124V513h9v10h2s0.82,3,0,3H116v39h88V526h-9v-3h1V513s18,0.634,18,0V503h14v14H217v34h25v10h82V551h46v10h63V551h15V308H343v-2Z"/>
  <path id="Фигура_3" data-name="Фигура 3" class="cls-2" d="M592,306H554v3H455V551h15v10h63V551h46v10h82s-1.221-10,0-10,25.474,0.474,25,0,0-35,0-35H675V503h14v10h18v10h1v3h-9v39h89V526H769v-3h1V513h11V308H592v-2Z"/>
  <path id="Фигура_4" data-name="Фигура 4" class="cls-1" d="M605,256v38h4v10H785V513h18v10h63V513h12V503h11V290H879V277h10V64H879V54H866V44H803V54H747V44h-1V41h19V2H676V41h9v3h-1V54H666V64H653V51h10V16H645V6H562V16H542V239h66v16h-3v1Z"/>
</svg>
