<svg xmlns="http://www.w3.org/2000/svg" width="902" height="633" viewBox="0 0 902 633">

<defs>
    <style>
      .cls-1 {
        fill: #fff;
      }

      .cls-2 {
        fill: #5fc5d3;
      }

      .cls-2, .cls-3, .cls-4, .cls-5 {
        fill-rule: evenodd;
      }

      .cls-3 {
        fill: #8ac9df;
      }

      .cls-4 {
        fill: #7fc8af;
      }

      .cls-5 {
        fill: #f7cb4c;
      }
    </style>
  </defs>
  <g>

    <path id="Фигура_1" data-name="Фигура 1" class="cls-2" d="M213,387H187v1H88V508h13v7h1v2H92v26h61V517H143v-2h1v-7h16v-7h9v9h-7v16h7v8h5v6h56v-6h15V388H213v-1Z"/>
    <path id="Фигура_3" data-name="Фигура 3" class="cls-3" d="M173,379V352h-2v-6h-1V217H157v-6H101v6H86v24h7v9H84v-7H72v-9h6V208H16v26H31v2H30v7H10v7H3V371h7v9H3V501h7v7H27v3h1v4s42,0.114,42,0v-7H84V385h89v-6Z"/>
    <path id="Фигура_2" data-name="Фигура 2" class="cls-2" d="M307,387H280v1H249V534h16v6h56v-6h5v-7h7V510h-7v-9h9s-0.271,6.729,0,7,16,0,16,0v7h1v2H341v26h62V517H392v-2h1v-7h13V388H307v-1Z"/>
    <path id="Фигура_4" data-name="Фигура 4" class="cls-4" d="M319,352v27h2v6h89V508h16v7h43v-7h16v-7h7V380h-7v-9h7V250h-7v-7H467v-7H424v7H382v-7h-1v-2h13V208H334v26h6v2h-1v7H327v7h-9v-9h7V217H310v-6H255v6H241V342h77v-2h1v2h2v10h-2Z"/>
    <path id="Фигура_5" data-name="Фигура 5" class="cls-5" d="M654,402H498v99h7v7h4v7h1v2h-9l14,59h25V564h2s-0.649,1,0,1h7v5h6v7H672V404H654v-2Z"/>
    <path id="Фигура_6" data-name="Фигура 6" class="cls-5" d="M710,433H683v2h-7V577h7v-8h9v8H861v-7h7V560h7v-1h2v26h26s0.352-74,0-74H877v7h-2v-1h-7V497h7V454h-7V442h-7v-5H719v10a27.273,27.273,0,0,1-3,0c-0.111-.111,0-12,0-12h-6v-2Z"/>
    <path id="Фигура_7" data-name="Фигура 7" class="cls-5" d="M717,340v26h2v67H870v7s24,0.9,24,0V425h6V369h-6s0.382-18.382,0-18-24,0-24,0v7h-9v-8h7v-9h7v-1h2s-1.106,3,0,3h26s0.393-61,0-61H877v17h-2v-1h-7V284H719v56h-2Z"/>
    <path id="Фигура_8" data-name="Фигура 8" class="cls-5" d="M718,203v27h1v53H868V267s7.152-.153,7,0h0v-1h2v17h26V222H877v3h-2v-1h-7v-9h-7v-9h9v7h16v-7s8,0.528,8,0v-6h6V144h-6V131H766v33H719v39h-1Z"/>
    <path id="Фигура_9" data-name="Фигура 9" class="cls-4" d="M677,200h27v-3h11V160h3v3h46V130H893V114h6V71h-6V63h-7V56H761s0.061,6.939,0,7-8,0-8,0V56H724V50H698v6h-7v7h-9V56H554v7h-7V85h-6v1h-2V72H514v60h25v-5h2v1h7s-0.185,22.185,0,22,7,0,7,0v9h-8v8h-6s-0.354,26,0,26h6v52h92v2h2v3H617v99h54V197h6v3Z"/>
  </g>
</svg>
