<svg id="Группа_6" data-name="Группа 6" xmlns="http://www.w3.org/2000/svg" width="714" height="542" viewBox="0 0 714 542">

  <path id="Фигура_10" data-name="Фигура 10" class="cls-1" d="M108,285l-8,26-2,7H18v-2H13V138h5v-5H38v-6h2v-7H86v7h2v6h8v6h8v-6h8v-6h2v-7h19V106h31v15h-4v6h2v6h33V267H112v4Z"/>
  <path id="Фигура_11" data-name="Фигура 11" class="cls-1" d="M344,90v26h13v5h-2v7H334V270h57v-3h1v5h27v-5h4V128H405v-7h-2v-5h13V90H344Z"/>
  <path id="Фигура_12" data-name="Фигура 12" class="cls-1" d="M459,267h90V194h44v-3h5V171h6v-1h6v11h72V109H610v10h-6v-4h-6V90h-5V85H581V79h-2V72H548v7h-2v6H529V79h-2V72H496v7h-2v6H476V79h-1V72H443v7h-2v6h-9v5h-5V267h32Z"/>
  <path id="Фигура_13" data-name="Фигура 13" class="cls-1" d="M554,271l4,15,8,25,1,7H687v-2h5v-8h6v-2h7V275h-7v-2h-7V242h7v-2h7l4-3,4-13-4-15H698v-2h-7v-9h-5v-5H600v5H554v73Z"/>
  <path id="Фигура_15" data-name="Фигура 15" class="cls-1" d="M348,321H511V500h-3v5s-17-.711-17,0v7h-2v7H443v-8h-2v-6H417v7h-2v5h3v20H366V518h3v-7h-2v-6H350v-5h-2V321Z"/>
  <path id="Фигура_2475" data-name="Фигура 2475" class="cls-1" d="M512,366h97V486h-2v19H590v6h-2v8H565v-8h-2v-6H549v6h-2v8H524v-8h-2v-6h-7v-5h-3V366Z"/>
  <path id="Фигура_16" data-name="Фигура 16" class="cls-1" d="M186,321H345V500h-2v19H326v7h-2v6h5v4l-15,5-16-5v-3H278v-7h-2v-7H252v7h-2v7H205v-7h-2v-7H186V321Z"/>
  <path id="Фигура_17" data-name="Фигура 17" class="cls-1" d="M18,321H181V514h-3v5H161v7h-1v6h4v5l-15,4-15-4v-4H114v-7h-2v-7H88v7H86v7H40v-7H38v-7H18v-5H13V323h5v-2Z"/>
</svg>
