<svg id="выбор_квартиры" data-name="выбор квартиры" xmlns="http://www.w3.org/2000/svg" width="713" height="572" viewBox="0 0 713 572">
  <path id="Фигура_536" data-name="Фигура 536" class="cls-1" d="M512,397h97V517h-2v19H590v6h-2v8H565v-8h-2v-6H549v6h-2v8H524v-8h-2v-6h-7v-5h-3V397Z"/>
  <path id="Фигура_2" data-name="Фигура 2" class="cls-1" d="M13,354h5v-2H181V545h-3v5H161v6h-2v8h4v3l-14,4-14-4v-3H114v-7h-2v-7H87v7H86v7H40v-7H38v-7H19v-5H13V354Z"/>
  <path id="Фигура_9" data-name="Фигура 9" class="cls-1" d="M108,317l-8,25-2,6H18v-1H13V170h5v-5H38v-7h2v-6H86v7h2v6h8v5h8v-5h8v-7h2v-6h46v7h1v6h34V298H112v4Z"/>
  <path id="Фигура_3" data-name="Фигура 3" class="cls-1" d="M186,352H345V531h-2v19H326v7h-2v7h5v3l-15,4-15-4v-3H278v-7h-2v-7H252v7h-2v7H205v-7h-2v-7H186V352Z"/>
  <path id="Фигура_4" data-name="Фигура 4" class="cls-1" d="M348,352H511V531h-4v5H490v6h-1v7H443v-7h-2v-6H417v6h-2v6.986L418,549v18H366V549h3v-7h-2v-6H350v-5h-2V352Z"/>
  <path id="Фигура_6" data-name="Фигура 6" class="cls-1" d="M554,302l4,15,3,26,1,6H686v-2h5V324h7v-2h7V306h-7v-2h-7V273h7v-2h10l4-15-4-16H698v-2h-7v-9h-5v-5h-7V212h14V130H610v13H597v79h3v7H554v73Z"/>
  <path id="Фигура_7" data-name="Фигура 7" class="cls-1" d="M428,298H549V225h44V117H581v-7h-2v-7H548v7h-2v7H529v-7h-2v-7H496v7h-2v7H476v-7h-1v-7H443v7h-1v7h-9v5h-5V298Z"/>
  <path id="Фигура_8" data-name="Фигура 8" class="cls-1" d="M334,298h58v5h27v-5h4V159H404v-6h-1v-6h12V121H344v26h13v6h-2v6H334V298Z"/>
</svg>
