<?xml version="1.0" encoding="utf-8"?>
<!-- Generator: Adobe Illustrator 18.1.1, SVG Export Plug-In . SVG Version: 6.00 Build 0)  -->
<svg version="1.1" id="Слой_1" xmlns="http://www.w3.org/2000/svg" xmlns:xlink="http://www.w3.org/1999/xlink" x="0px" y="0px"
	 viewBox="0 0 9 9" enable-background="new 0 0 9 9" xml:space="preserve">
<path fill-rule="evenodd" clip-rule="evenodd" fill="#C52D2C" d="M7.6,5.4C7.4,5.2,7.1,5.1,6.9,5.1c-0.2,0-0.5,0.1-0.7,0.3L5.6,6
	C5.5,6,5.5,5.9,5.4,5.9c-0.1,0-0.1-0.1-0.2-0.1C4.6,5.4,4.1,4.9,3.5,4.3C3.3,4,3.1,3.7,3,3.4C3.2,3.3,3.3,3.1,3.5,3
	c0.1-0.1,0.1-0.1,0.2-0.2c0.4-0.4,0.4-1,0-1.4L3.1,0.9C3,0.8,2.9,0.7,2.9,0.7C2.8,0.5,2.6,0.4,2.5,0.3C2.3,0.1,2.1,0,1.8,0
	S1.3,0.1,1.1,0.3l0,0L0.4,1C0.2,1.2,0,1.6,0,1.9c0,0.6,0.1,1.1,0.3,1.5C0.6,4.3,1.1,5.1,1.8,6c0.9,1.1,2,1.9,3.2,2.5
	C5.5,8.7,6.1,9,6.8,9c0,0,0.1,0,0.1,0c0.5,0,0.9-0.2,1.2-0.5c0,0,0,0,0,0c0.1-0.1,0.2-0.2,0.4-0.4C8.5,8,8.6,8,8.7,7.9
	C8.9,7.7,9,7.4,9,7.2c0-0.2-0.1-0.5-0.3-0.7L7.6,5.4z"/>
</svg>
