<?xml version="1.0" encoding="utf-8"?>
<!-- Generator: Adobe Illustrator 18.1.1, SVG Export Plug-In . SVG Version: 6.00 Build 0)  -->
<svg version="1.1" id="Слой_1" xmlns="http://www.w3.org/2000/svg" xmlns:xlink="http://www.w3.org/1999/xlink" x="0px" y="0px"
	 viewBox="0 284.9 595.3 257" enable-background="new 0 284.9 595.3 257" xml:space="preserve">
<g>
	<polygon fill="#231F20" points="515.8,405 551.3,368.5 525.1,368.5 492.8,401.5 492.8,368.5 473.6,368.5 473.6,457.1 492.8,457.1 
		492.8,428.4 502.2,418.7 530.8,457.3 554.8,457.3 	"/>
	<polygon fill="#231F20" points="423.8,420 398.2,368.5 378.9,368.5 378.9,457.3 398.2,457.3 398.2,414.3 418,457.3 430,457.3 
		449.7,414.3 449.7,457.3 468.8,457.3 468.8,368.5 449.7,368.5 	"/>
	<path fill="#231F20" d="M372,384.4l2.2-14.9c-15.6-4.2-43.9-5.3-59.5,10.3c-16.5,16.3-16.5,48,0,64.6
		c15.6,15.6,43.9,14.5,59.5,10.1l-2.2-14.9c-13.6,1.7-33,1.8-43.9-8.8c-9-9.1-9.2-28.2,0-37.4C338.9,382.6,358.4,382.9,372,384.4
		L372,384.4z"/>
	<polygon fill="#ED1C24" points="276,460.6 151.9,477.8 151.9,424.2 276,442.2 	"/>
	<polygon fill="#FDB913" points="276,365.7 276,383 151.9,322.6 151.9,299.9 	"/>
	<polygon fill="#ED1C24" points="268.4,389.4 151.9,335.5 151.9,322.6 276,383 	"/>
	<polygon fill="#ED1C24" points="268.4,422.2 151.9,377.6 151.9,361.7 276,413.1 	"/>
	<polygon fill="#FDB913" points="276,413.1 151.9,361.7 151.9,335.5 276,393.1 	"/>
	<polygon fill="#FDB913" points="276,442.2 151.9,424.2 151.9,377.6 276,425.4 	"/>
	<polygon fill="#ED1C24" points="27.5,460.6 151.9,477.8 151.9,424.2 27.5,442.2 	"/>
	<polygon fill="#FDB913" points="27.5,365.7 27.5,383 151.9,322.6 151.9,299.9 	"/>
	<polygon fill="#ED1C24" points="35.4,389.4 151.9,335.5 151.9,322.6 27.5,383 	"/>
	<polygon fill="#ED1C24" points="35.4,422.2 151.9,377.6 151.9,361.7 27.5,413.1 	"/>
	<polygon fill="#FDB913" points="27.5,413.1 151.9,361.7 151.9,335.5 27.5,393.1 	"/>
	<polygon fill="#FDB913" points="27.5,442.2 151.9,424.2 151.9,377.6 27.5,425.4 	"/>
	<path fill="#231F20" d="M302.6,331.7h11.6v2H305v15.8h-2.4V331.7L302.6,331.7z M316.1,349.6v-17.9h6.8c1.3,0,2.2,0,2.8,0.1
		c0.9,0.1,1.6,0.4,2.2,0.9c0.6,0.5,1,1,1.5,1.8c0.3,0.7,0.6,1.5,0.6,2.4c0,1.6-0.6,2.9-1.5,4c-1,1-2.8,1.5-5.3,1.5h-4.7v7.3H316.1
		L316.1,349.6z M318.5,340.2h4.7c1.6,0,2.6-0.3,3.2-0.9c0.7-0.6,1-1.3,1-2.4c0-0.8-0.1-1.5-0.6-1.9c-0.4-0.6-0.9-0.9-1.5-1.2
		c-0.4,0-1.2-0.1-2.2-0.1h-4.7V340.2L318.5,340.2z M330.5,331.7h2.4l5.9,11l5.2-11h2.4l-6.8,14c-0.8,1.8-1.5,2.9-2,3.4
		c-0.4,0.6-1.3,0.9-2.2,0.9c-0.8,0-1.5-0.1-2.4-0.4v-2.1c0.7,0.4,1.3,0.6,2,0.6c0.6,0,1-0.1,1.5-0.6c0.4-0.3,0.9-1.2,1.5-2.5
		L330.5,331.7L330.5,331.7z M348.2,331.7h14.1v17.9h-2.4v-15.8h-9.4v15.8h-2.4L348.2,331.7L348.2,331.7z M366.3,331.7h14.1v17.9
		h-2.3v-15.8h-9.4v15.8h-2.4L366.3,331.7L366.3,331.7z M382.3,349.6l6.9-17.9h2.5l7.3,17.9h-2.6l-2.1-5.4h-7.5l-2.1,5.4H382.3
		L382.3,349.6z M387.4,342.3h6.1l-1.9-5c-0.6-1.5-1-2.8-1.3-3.7c-0.1,1.2-0.4,2.2-0.9,3.4L387.4,342.3L387.4,342.3z M408,331.7h2.4
		v7.8c1.2,0,1.9-0.1,2.3-0.6c0.4-0.4,1-1.5,1.6-2.9c0.6-1.2,0.9-2.1,1.3-2.5c0.3-0.6,0.7-0.9,1.3-1.3c0.6-0.3,1.3-0.4,1.9-0.4
		c1,0,1.5,0,1.5,0v2c0,0-0.2,0-0.4,0c-0.3,0-0.4,0-0.4,0c-0.7,0-1.3,0.1-1.8,0.6c-0.3,0.3-0.7,1-1.1,2.4c-0.8,1.5-1.2,2.3-1.6,2.8
		c-0.4,0.4-0.9,0.7-1.5,1c1.2,0.3,2.3,1.3,3.4,3.1l3.7,6h-2.9l-2.9-4.9c-0.9-1.3-1.5-2.2-2.1-2.8c-0.6-0.4-1.3-0.8-2.2-0.8v8.4H408
		L408,331.7L408,331.7z M421.4,340.9c0-3.1,0.9-5.4,2.5-7c1.6-1.6,3.7-2.5,6.1-2.5c1.6,0,3.1,0.3,4.4,1.2c1.3,0.8,2.3,1.9,3.1,3.3
		c0.8,1.5,1,3.1,1,4.9c0,1.9-0.3,3.5-1,4.8c-0.8,1.5-1.8,2.6-3.1,3.4c-1.5,0.8-3,1-4.4,1c-1.8,0-3.2-0.3-4.6-1.2
		c-1.3-0.9-2.3-1.9-3.1-3.4C421.9,344,421.4,342.4,421.4,340.9L421.4,340.9z M423.9,340.9c0,2.2,0.6,3.8,1.8,5.2
		c1.2,1.2,2.6,1.8,4.4,1.8s3.3-0.6,4.4-1.8c1.2-1.3,1.8-3.1,1.8-5.4c0-1.5-0.3-2.6-0.8-3.8c-0.6-1-1.3-1.9-2.2-2.5
		c-1-0.6-2.1-0.9-3.3-0.9c-1.6,0-3.1,0.6-4.4,1.8C424.6,336.2,423.9,338.3,423.9,340.9L423.9,340.9z M441.7,349.6v-17.9h3.5
		l4.3,12.6c0.5,1.3,0.8,2.2,0.9,2.8c0.1-0.8,0.4-1.6,0.9-2.9l4.4-12.5h3.1v17.9h-2.2v-15l-5.3,15h-2.1l-5.3-15.3v15.3H441.7
		L441.7,349.6z M462.7,331.7h14.1v17.9h-2.5v-15.8h-9.2v15.8h-2.4V331.7L462.7,331.7z M478.7,349.6l6.9-17.9h2.5l7.3,17.9h-2.6
		l-2.2-5.4h-7.5l-1.9,5.4H478.7L478.7,349.6z M483.9,342.3h6l-1.8-5c-0.6-1.5-1-2.8-1.3-3.7c-0.3,1.2-0.6,2.2-1,3.4L483.9,342.3
		L483.9,342.3z M497.3,349.6v-17.9h2.5v7.3h9.3v-7.3h2.3v17.9h-2.3v-8.4h-9.3v8.4H497.3L497.3,349.6z M515.6,331.7h2v14.2l9.6-14.2
		h2.5v17.9h-2.2v-14.1l-9.5,14.1h-2.4L515.6,331.7L515.6,331.7z M533.5,331.7h2.2v14.2l9.5-14.2h2.4v17.9h-2.1v-14.1l-9.7,14.1h-2.4
		L533.5,331.7L533.5,331.7z M542.4,327.4h1.5c0,1-0.4,1.8-1,2.4c-0.7,0.6-1.5,0.8-2.5,0.8c-1,0-1.9-0.1-2.5-0.8
		c-0.7-0.6-1-1.3-1.2-2.4h1.5c0.1,0.6,0.4,0.9,0.7,1.2c0.3,0.3,0.8,0.5,1.3,0.5c0.8,0,1.2-0.1,1.5-0.5
		C542.1,328.4,542.3,328,542.4,327.4L542.4,327.4z"/>
	<g>
		<path d="M49.6,520.5c-1.3,0.7-3.9,1.3-7.3,1.3c-7.8,0-13.7-4.9-13.7-14c0-8.7,5.9-14.6,14.5-14.6c3.5,0,5.6,0.8,6.6,1.2l-0.9,2.9
			c-1.4-0.7-3.3-1.1-5.6-1.1c-6.5,0-10.8,4.2-10.8,11.4c0,6.8,3.9,11.2,10.6,11.2c2.2,0,4.4-0.5,5.8-1.1L49.6,520.5z"/>
		<path d="M60.7,496.8h-8.4v-3h20.5v3h-8.5v24.7h-3.6C60.7,521.4,60.7,496.8,60.7,496.8z"/>
		<path d="M75.9,494c1.8-0.3,4-0.5,6.9-0.5c3.5,0,6.1,0.8,7.8,2.3c1.5,1.3,2.4,3.3,2.4,5.8s-0.8,4.5-2.1,5.9c-1.9,2-5,3-8.5,3
			c-1.1,0-2,0-2.9-0.2v11.1h-3.6L75.9,494L75.9,494z M79.5,507.4c0.8,0.2,1.8,0.3,3,0.3c4.3,0,7-2.1,7-5.9c0-3.6-2.6-5.4-6.5-5.4
			c-1.6,0-2.7,0.1-3.4,0.3L79.5,507.4L79.5,507.4z"/>
		<path d="M121.1,507.3c0,9.6-5.8,14.6-12.9,14.6c-7.3,0-12.4-5.7-12.4-14c0-8.8,5.5-14.6,12.9-14.6
			C116.3,493.2,121.1,499.1,121.1,507.3z M99.7,507.7c0,5.9,3.2,11.2,8.8,11.2c5.7,0,8.9-5.2,8.9-11.5c0-5.5-2.9-11.3-8.8-11.3
			C102.6,496.2,99.7,501.6,99.7,507.7z"/>
		<path d="M129.2,493.7v11.7c0,4.4-0.1,8-0.3,11.7l0.1,0c1.4-2.9,3.1-5.9,5.2-9.2l9-14.3h3.6v27.7h-3.4v-11.8c0-4.5,0-7.8,0.3-11.3
			l-0.1,0c-1.4,3-3.3,6.2-5.2,9.3l-8.7,13.8h-3.9v-27.7L129.2,493.7L129.2,493.7z"/>
		<path d="M158.1,496.8h-8.4v-3h20.5v3h-8.5v24.7h-3.6V496.8z"/>
		<path d="M187.7,508.4h-10.7v10h12v3h-15.6v-27.7h14.9v3h-11.4v8.8h10.8L187.7,508.4L187.7,508.4z"/>
		<path d="M212.9,493.7v27.7h-3.6v-24.7h-9.2v8.4c0,6-0.2,12.7-4.2,15.3c-1,0.7-2.6,1.3-4.3,1.3l-0.5-2.9c1.1-0.2,2.3-0.9,2.9-1.5
			c2.2-2.2,2.4-7.6,2.4-12v-11.7L212.9,493.7L212.9,493.7z"/>
		<path d="M222.7,493.7v10.4c0.8-0.1,2.5-0.2,3.4-0.2c5.7,0,10.7,2.5,10.7,8.7c0,2.6-0.8,4.5-2.1,5.9c-2.3,2.4-6.1,3.3-9.9,3.3
			c-2.5,0-4.4-0.1-5.6-0.3v-27.6L222.7,493.7L222.7,493.7z M222.7,518.7c0.8,0.1,1.8,0.2,3,0.2c4,0,7.4-1.9,7.4-6.1
			c0-4.4-3.5-6-7.4-6c-0.9,0-2,0.1-2.9,0.2L222.7,518.7L222.7,518.7z"/>
		<path d="M244.9,493.7v11.6h13.4v-11.6h3.6v27.7h-3.6v-13h-13.4v13h-3.6v-27.7H244.9z"/>
		<path d="M291.9,507.3c0,9.6-5.8,14.6-12.9,14.6c-7.3,0-12.4-5.7-12.4-14c0-8.8,5.5-14.6,12.9-14.6
			C286.9,493.2,291.9,499.1,291.9,507.3z M270.3,507.7c0,5.9,3.2,11.2,8.8,11.2c5.7,0,8.9-5.2,8.9-11.5c0-5.5-2.9-11.3-8.8-11.3
			C273.3,496.2,270.3,501.6,270.3,507.7z"/>
		<path d="M310.9,508.4h-10.8v10h12v3h-15.6v-27.7h14.9v3h-11.4v8.8h10.8L310.9,508.4L310.9,508.4z"/>
		<path d="M326.5,493.7l5.5,11.8c0.7,1.7,1.4,3.3,2,4.9h0.1c0.5-1.4,1-3,1.8-5l4.3-11.7h3.8l-5.8,14.2c-1.5,3.7-3.3,7.9-5.2,10.5
			c-1.8,2.3-3.8,3.4-6.3,3.4c-0.9,0-1.6-0.1-2-0.2l0.4-2.9c0.3,0.1,0.7,0.1,1.3,0.1c2.9,0,4.6-2.8,5.4-4.8c0.3-0.6,0.2-1-0.1-1.7
			l-9.2-18.7L326.5,493.7L326.5,493.7z"/>
		<path d="M366.9,493.7v27.7h-3.6v-24.7h-12.9v24.7h-3.6v-27.7H366.9z"/>
		<path d="M373.2,494c1.8-0.3,4-0.5,6.9-0.5c3.5,0,6.1,0.8,7.8,2.3c1.5,1.3,2.4,3.3,2.4,5.8s-0.8,4.5-2.1,5.9c-1.9,2-5,3-8.5,3
			c-1.1,0-2,0-2.9-0.2v11.1h-3.6L373.2,494L373.2,494z M376.8,507.4c0.8,0.2,1.8,0.3,3,0.3c4.3,0,7-2.1,7-5.9c0-3.6-2.6-5.4-6.5-5.4
			c-1.6,0-2.7,0.1-3.4,0.3L376.8,507.4L376.8,507.4z"/>
		<path d="M396.1,512.7l-2.9,8.7h-3.7l9.4-27.7h4.3l9.5,27.7h-3.8l-3-8.7H396.1z M405.2,509.9l-2.7-8c-0.6-1.8-1-3.5-1.4-5.1H401
			c-0.4,1.7-0.9,3.3-1.4,5l-2.7,8H405.2z"/>
		<path d="M416.8,494.1c1.6-0.3,4-0.6,6.5-0.6c3.6,0,5.9,0.6,7.6,2c1.4,1.1,2.3,2.7,2.3,4.9c0,2.7-1.8,5-4.7,6.1v0.1
			c2.6,0.7,5.7,2.8,5.7,7c0,2.4-0.9,4.2-2.4,5.5c-1.9,1.8-5.1,2.6-9.6,2.6c-2.5,0-4.4-0.1-5.5-0.3L416.8,494.1L416.8,494.1z
			 M420.3,505.4h3.3c3.8,0,6-2,6-4.6c0-3.3-2.5-4.5-6.1-4.5c-1.7,0-2.6,0.1-3.2,0.2V505.4z M420.3,518.7c0.7,0.1,1.8,0.1,3,0.1
			c3.7,0,7.1-1.4,7.1-5.4c0-3.8-3.3-5.3-7.1-5.3h-3L420.3,518.7L420.3,518.7z"/>
		<path d="M457.4,493.7v27.7h-3.6v-24.7h-9.2v8.4c0,6-0.2,12.7-4.2,15.3c-1,0.7-2.6,1.3-4.3,1.3l-0.5-2.9c1.1-0.2,2.3-0.9,2.9-1.5
			c2.2-2.2,2.4-7.6,2.4-12v-11.7L457.4,493.7L457.4,493.7z"/>
		<path d="M478,508.4h-10.8v10h12v3h-15.6v-27.7h14.9v3h-11.4v8.8h10.8L478,508.4L478,508.4z"/>
		<path d="M487.4,493.7v11.6h13.4v-11.6h3.6v27.7h-3.6v-13h-13.4v13h-3.6v-27.7H487.4z"/>
		<path d="M514.1,493.7v11.7c0,4.4-0.1,8-0.3,11.7l0.1,0c1.4-2.9,3.1-5.9,5.2-9.2l9-14.3h3.6v27.7h-3.4v-11.8c0-4.5,0-7.8,0.3-11.3
			l-0.1,0c-1.4,3-3.3,6.2-5.2,9.3l-8.7,13.8h-3.8v-27.7L514.1,493.7L514.1,493.7z"/>
		<path d="M552.1,508.4h-10.8v10h12v3h-15.6v-27.7h14.9v3h-11.4v8.8H552L552.1,508.4L552.1,508.4z"/>
	</g>
</g>
</svg>
