<?xml version="1.0" encoding="utf-8"?>
<!-- Generator: Adobe Illustrator 18.1.1, SVG Export Plug-In . SVG Version: 6.00 Build 0)  -->
<svg version="1.1" id="Слой_1" xmlns="http://www.w3.org/2000/svg" xmlns:xlink="http://www.w3.org/1999/xlink" x="0px" y="0px"
	 viewBox="0 0 1258.4 574.5" enable-background="new 0 0 1258.4 574.5" xml:space="preserve">
<g>
	<polygon fill-rule="evenodd" clip-rule="evenodd" fill="#231F20" points="1090.3,253.6 1165.5,176.3 1110.1,176.3 1041.8,246.1 
		1041.8,176.3 1001.2,176.3 1001.2,363.7 1041.8,363.7 1041.8,303.1 1061.6,282.6 1122.1,364 1172.9,364 1090.3,253.6 	"/>
	<polygon fill-rule="evenodd" clip-rule="evenodd" fill="#231F20" points="896,285.3 841.7,176.3 801,176.3 801,364 841.7,364 
		841.7,273.3 883.6,364 908.9,364 950.7,273.3 950.7,364 991,364 991,176.3 950.7,176.3 896,285.3 	"/>
	<path fill-rule="evenodd" clip-rule="evenodd" fill="#231F20" d="M786.3,210l4.7-31.4c-33-8.9-92.7-11.2-125.7,21.8
		c-34.9,34.5-34.9,101.5,0,136.5c33,32.9,92.7,30.6,125.7,21.3l-4.7-31.4c-28.7,3.5-69.8,3.9-92.7-18.6c-19-19.3-19.4-59.7,0-79.1
		C716.5,206.1,757.6,206.9,786.3,210L786.3,210z"/>
	<polygon fill-rule="evenodd" clip-rule="evenodd" fill="#ED1C24" points="583.5,371 321.1,407.5 321.1,294.2 583.5,332.2 
		583.5,371 	"/>
	<polygon fill-rule="evenodd" clip-rule="evenodd" fill="#FDB913" points="583.5,170.5 583.5,207 321.1,79.4 321.1,31.3 
		583.5,170.5 	"/>
	<polygon fill-rule="evenodd" clip-rule="evenodd" fill="#ED1C24" points="567.3,220.6 321.1,106.6 321.1,79.4 583.5,207 
		567.3,220.6 	"/>
	<polygon fill-rule="evenodd" clip-rule="evenodd" fill="#ED1C24" points="567.3,290 321.1,195.7 321.1,162 583.5,270.6 567.3,290 	
		"/>
	<polygon fill-rule="evenodd" clip-rule="evenodd" fill="#FDB913" points="583.5,270.6 321.1,162 321.1,106.6 583.5,228.3 
		583.5,270.6 	"/>
	<polygon fill-rule="evenodd" clip-rule="evenodd" fill="#FDB913" points="583.5,332.2 321.1,294.2 321.1,195.7 583.5,296.6 
		583.5,332.2 	"/>
	<polygon fill-rule="evenodd" clip-rule="evenodd" fill="#ED1C24" points="58.1,371 321.1,407.5 321.1,294.2 58.1,332.2 58.1,371 	
		"/>
	<polygon fill-rule="evenodd" clip-rule="evenodd" fill="#FDB913" points="58.1,170.5 58.1,207 321.1,79.4 321.1,31.3 58.1,170.5 	
		"/>
	<polygon fill-rule="evenodd" clip-rule="evenodd" fill="#ED1C24" points="74.8,220.6 321.1,106.6 321.1,79.4 58.1,207 74.8,220.6 	
		"/>
	<polygon fill-rule="evenodd" clip-rule="evenodd" fill="#ED1C24" points="74.8,290 321.1,195.7 321.1,162 58.1,270.6 74.8,290 	"/>
	<polygon fill-rule="evenodd" clip-rule="evenodd" fill="#FDB913" points="58.1,270.6 321.1,162 321.1,106.6 58.1,228.3 58.1,270.6 
			"/>
	<polygon fill-rule="evenodd" clip-rule="evenodd" fill="#FDB913" points="58.1,332.2 321.1,294.2 321.1,195.7 58.1,296.6 
		58.1,332.2 	"/>
	<path fill-rule="evenodd" clip-rule="evenodd" fill="#231F20" d="M639.7,98.6h24.5v4.3h-19.5v33.5h-5V98.6L639.7,98.6z
		 M668.2,136.4V98.6h14.3c2.8,0,4.7,0,5.9,0.3c1.9,0.3,3.4,0.9,4.7,1.8c1.2,1,2.2,2.2,3.1,3.7c0.6,1.5,1.2,3.1,1.2,5
		c0,3.4-1.2,6.2-3.1,8.4c-2.2,2.2-5.9,3.1-11.2,3.1h-9.9v15.5H668.2L668.2,136.4z M673.2,116.6h9.9c3.4,0,5.6-0.6,6.8-1.8
		c1.5-1.3,2.2-2.8,2.2-5c0-1.6-0.3-3.1-1.2-4.1c-0.9-1.2-1.9-1.8-3.1-2.5c-0.9,0-2.5-0.3-4.7-0.3h-9.9V116.6L673.2,116.6z
		 M698.6,98.6h5l12.4,23.2l10.9-23.2h5l-14.3,29.5c-1.6,3.7-3.1,6.2-4.3,7.1c-0.9,1.3-2.8,1.9-4.6,1.9c-1.6,0-3.1-0.3-5-0.9v-4.4
		c1.5,0.9,2.8,1.3,4.3,1.3c1.2,0,2.2-0.3,3.1-1.3c0.9-0.6,1.9-2.5,3.1-5.3L698.6,98.6L698.6,98.6z M736.1,98.6h29.8v37.8h-5v-33.5
		h-19.9v33.5h-5V98.6L736.1,98.6z M774.3,98.6h29.8v37.8h-4.9v-33.5h-19.9v33.5h-5V98.6L774.3,98.6z M808.1,136.4l14.6-37.8h5.3
		l15.5,37.8h-5.6l-4.4-11.5h-15.8l-4.4,11.5H808.1L808.1,136.4z M819,120.9h13l-4-10.6c-1.2-3.1-2.1-5.9-2.8-7.8
		c-0.3,2.5-0.9,4.7-1.8,7.2L819,120.9L819,120.9z M862.4,98.6h5V115c2.5,0,4-0.3,4.9-1.3c0.9-0.9,2.2-3.1,3.4-6.2
		c1.2-2.5,1.8-4.4,2.8-5.3c0.7-1.2,1.5-1.9,2.8-2.8c1.2-0.6,2.8-0.9,4-0.9c2.2,0,3.1,0,3.1,0v4.3c0,0-0.4,0-0.9,0
		c-0.6,0-0.9,0-0.9,0c-1.5,0-2.8,0.3-3.7,1.3c-0.6,0.6-1.5,2.2-2.4,5c-1.6,3.1-2.5,4.9-3.4,5.9c-0.9,0.9-1.8,1.5-3.1,2.2
		c2.5,0.6,4.9,2.8,7.1,6.5l7.8,12.7h-6.2l-6.2-10.3c-1.9-2.8-3.1-4.7-4.4-5.9c-1.2-0.9-2.8-1.6-4.6-1.6v17.7h-5V98.6L862.4,98.6z
		 M890.9,118.1c0-6.5,1.9-11.5,5.3-14.9c3.4-3.4,7.8-5.3,13-5.3c3.4,0,6.6,0.7,9.4,2.5c2.8,1.6,4.9,4.1,6.5,6.9
		c1.6,3.1,2.2,6.5,2.2,10.3c0,4-0.6,7.4-2.2,10.2c-1.6,3.1-3.7,5.6-6.5,7.1c-3.2,1.6-6.3,2.2-9.4,2.2c-3.7,0-6.8-0.6-9.7-2.5
		c-2.7-1.9-4.9-4-6.5-7.1C891.9,124.6,890.9,121.2,890.9,118.1L890.9,118.1z M896.2,118.1c0,4.7,1.3,8.1,3.8,10.9
		c2.5,2.5,5.6,3.7,9.3,3.7c3.7,0,6.9-1.2,9.4-3.7c2.5-2.8,3.7-6.5,3.7-11.5c0-3.1-0.6-5.6-1.6-8.1c-1.2-2.2-2.8-4.1-4.6-5.3
		c-2.2-1.3-4.4-1.9-6.9-1.9c-3.4,0-6.5,1.3-9.3,3.7C897.5,108.2,896.2,112.5,896.2,118.1L896.2,118.1z M933.7,136.4V98.6h7.5l9,26.7
		c1,2.8,1.6,4.6,1.9,5.9c0.3-1.6,0.9-3.4,1.9-6.2l9.3-26.4h6.6v37.8h-4.7v-31.7L954,136.4h-4.4l-11.1-32.3v32.3H933.7L933.7,136.4z
		 M978.2,98.6h29.8v37.8h-5.3v-33.5h-19.5v33.5h-5V98.6L978.2,98.6z M1012,136.4l14.5-37.8h5.3l15.5,37.8h-5.6l-4.7-11.5h-15.8
		l-4,11.5H1012L1012,136.4z M1022.9,120.9h12.6l-3.7-10.6c-1.2-3.1-2.2-5.9-2.8-7.8c-0.6,2.5-1.2,4.7-2.2,7.2L1022.9,120.9
		L1022.9,120.9z M1051.3,136.4V98.6h5.3v15.5h19.6V98.6h4.9v37.8h-4.9v-17.7h-19.6v17.7H1051.3L1051.3,136.4z M1089.9,98.6h4.3v30.1
		l20.2-30.1h5.3v37.8h-4.7v-29.8l-20.1,29.8h-5V98.6L1089.9,98.6z M1127.7,98.6h4.7v30.1l20.1-30.1h5v37.8h-4.4v-29.8l-20.4,29.8h-5
		V98.6L1127.7,98.6z M1146.6,89.6h3.1c0,2.2-0.9,3.8-2.2,5c-1.5,1.3-3.1,1.6-5.3,1.6c-2.1,0-4-0.3-5.3-1.6c-1.5-1.2-2.1-2.8-2.5-5
		h3.1c0.3,1.3,0.9,1.9,1.5,2.5c0.6,0.6,1.6,1,2.8,1c1.6,0,2.5-0.3,3.1-1C1146,91.7,1146.3,90.8,1146.6,89.6L1146.6,89.6z"/>
	<g>
		<path d="M104.8,497.7c-2.8,1.4-8.3,2.8-15.5,2.8c-16.5,0-29-10.4-29-29.6c0-18.3,12.4-30.8,30.6-30.8c7.3,0,11.9,1.6,13.9,2.6
			l-1.8,6.2c-2.9-1.4-7-2.4-11.8-2.4c-13.7,0-22.9,8.8-22.9,24.2c0,14.3,8.3,23.6,22.5,23.6c4.6,0,9.3-1,12.3-2.4L104.8,497.7z"/>
		<path d="M128.4,447.5h-17.8v-6.4H154v6.4h-17.9v52.2h-7.7V447.5z"/>
		<path d="M160.5,441.7c3.7-0.6,8.4-1.1,14.5-1.1c7.5,0,13,1.7,16.4,4.9c3.2,2.8,5.1,7,5.1,12.3c0,5.3-1.6,9.5-4.5,12.5
			c-4,4.3-10.5,6.4-17.9,6.4c-2.3,0-4.3-0.1-6.1-0.5v23.5h-7.6V441.7z M168.1,470c1.7,0.4,3.7,0.6,6.3,0.6c9.1,0,14.7-4.4,14.7-12.5
			c0-7.7-5.5-11.5-13.8-11.5c-3.3,0-5.8,0.3-7.1,0.6V470z"/>
		<path d="M256.1,469.7c0,20.2-12.3,30.9-27.2,30.9c-15.5,0-26.3-12-26.3-29.7c0-18.6,11.6-30.8,27.2-30.8
			C245.8,440.1,256.1,452.4,256.1,469.7z M210.7,470.7c0,12.5,6.8,23.7,18.7,23.7c12,0,18.8-11,18.8-24.3c0-11.7-6.1-23.8-18.7-23.8
			C216.9,446.3,210.7,457.8,210.7,470.7z"/>
		<path d="M273.1,441.1v24.7c0,9.3-0.2,17-0.7,24.8l0.2,0.1c3-6.1,6.6-12.4,10.9-19.4l19-30.2h7.6v58.6h-7.1v-25
			c0-9.5,0.1-16.4,0.7-23.8l-0.3-0.1c-2.9,6.4-6.9,13.2-10.9,19.7l-18.3,29.1H266v-58.6H273.1z"/>
		<path d="M334.3,447.5h-17.8v-6.4h43.4v6.4H342v52.2h-7.7V447.5z"/>
		<path d="M396.7,472.2H374v21.1h25.4v6.3h-33v-58.6h31.6v6.3H374v18.5h22.8V472.2z"/>
		<path d="M450,441.1v58.6h-7.7v-52.3h-19.4v17.7c0,12.7-0.5,26.9-8.8,32.4c-2.2,1.4-5.6,2.8-9,2.8l-1-6.1c2.3-0.4,4.8-1.8,6.2-3.1
			c4.7-4.6,5.1-16,5.1-25.4v-24.7H450z"/>
		<path d="M470.7,441.1V463c1.7-0.3,5.2-0.4,7.2-0.4c12,0,22.6,5.3,22.6,18.3c0,5.5-1.7,9.5-4.5,12.5c-4.8,5-13,6.9-21,6.9
			c-5.3,0-9.3-0.3-11.8-0.7v-58.4H470.7z M470.7,493.8c1.7,0.3,3.7,0.4,6.3,0.4c8.4,0,15.6-4.1,15.6-13c0-9.2-7.4-12.7-15.7-12.7
			c-1.9,0-4.3,0.2-6.2,0.4V493.8z"/>
		<path d="M517.8,441.1v24.5h28.3v-24.5h7.7v58.6h-7.7v-27.5h-28.3v27.5h-7.6v-58.6H517.8z"/>
		<path d="M617,469.7c0,20.2-12.3,30.9-27.2,30.9c-15.5,0-26.3-12-26.3-29.7c0-18.6,11.6-30.8,27.2-30.8
			C606.6,440.1,617,452.4,617,469.7z M571.5,470.7c0,12.5,6.8,23.7,18.7,23.7c12,0,18.8-11,18.8-24.3c0-11.7-6.1-23.8-18.7-23.8
			C577.8,446.3,571.5,457.8,571.5,470.7z"/>
		<path d="M657.2,472.2h-22.8v21.1h25.4v6.3h-33v-58.6h31.6v6.3h-24.1v18.5h22.8V472.2z"/>
		<path d="M690.2,441.1l11.7,25c1.5,3.5,2.9,6.9,4.3,10.3h0.2c1-3,2.2-6.4,3.7-10.6l9.1-24.7h8l-12.3,30.1
			c-3.2,7.8-6.9,16.8-11,22.3c-3.8,4.8-8.1,7.2-13.3,7.2c-1.9,0-3.3-0.2-4.3-0.5l0.8-6.2c0.6,0.2,1.5,0.3,2.8,0.3
			c6.1-0.1,9.7-5.9,11.5-10.1c0.6-1.3,0.4-2.2-0.3-3.6l-19.5-39.5H690.2z"/>
		<path d="M775.7,441.1v58.6h-7.6v-52.3h-27.2v52.3h-7.6v-58.6H775.7z"/>
		<path d="M788.9,441.7c3.7-0.6,8.4-1.1,14.5-1.1c7.5,0,13,1.7,16.4,4.9c3.2,2.8,5.1,7,5.1,12.3c0,5.3-1.6,9.5-4.5,12.5
			c-4,4.3-10.5,6.4-17.9,6.4c-2.3,0-4.3-0.1-6.1-0.5v23.5h-7.6V441.7z M796.5,470c1.7,0.4,3.7,0.6,6.3,0.6c9.1,0,14.7-4.4,14.7-12.5
			c0-7.7-5.5-11.5-13.8-11.5c-3.3,0-5.8,0.3-7.1,0.6V470z"/>
		<path d="M837.3,481.2l-6.1,18.4h-7.8l19.9-58.6h9.1l20,58.6h-8.1l-6.3-18.4H837.3z M856.5,475.3l-5.7-16.9
			c-1.3-3.8-2.2-7.3-3-10.7h-0.2c-0.9,3.5-1.8,7-3,10.6l-5.7,17H856.5z"/>
		<path d="M881.1,441.8c3.3-0.7,8.5-1.2,13.8-1.2c7.6,0,12.4,1.3,16.1,4.3c3,2.3,4.9,5.7,4.9,10.3c0,5.7-3.7,10.6-9.9,12.9v0.2
			c5.6,1.4,12.1,6,12.1,14.7c0,5-2,8.9-5,11.7c-4.1,3.7-10.7,5.5-20.3,5.5c-5.2,0-9.2-0.3-11.7-0.7V441.8z M888.6,465.8h6.9
			c8,0,12.7-4.2,12.7-9.8c0-6.9-5.2-9.6-12.9-9.6c-3.5,0-5.5,0.3-6.7,0.5V465.8z M888.6,493.9c1.5,0.3,3.7,0.3,6.3,0.3
			c7.8,0,15-2.9,15-11.4c0-8-6.9-11.3-15.1-11.3h-6.3V493.9z"/>
		<path d="M967,441.1v58.6h-7.7v-52.3h-19.4v17.7c0,12.7-0.5,26.9-8.8,32.4c-2.2,1.4-5.6,2.8-9,2.8l-1-6.1c2.3-0.4,4.8-1.8,6.2-3.1
			c4.7-4.6,5.1-16,5.1-25.4v-24.7H967z"/>
		<path d="M1010.4,472.2h-22.8v21.1h25.4v6.3h-33v-58.6h31.6v6.3h-24.1v18.5h22.8V472.2z"/>
		<path d="M1030.4,441.1v24.5h28.3v-24.5h7.7v58.6h-7.7v-27.5h-28.3v27.5h-7.6v-58.6H1030.4z"/>
		<path d="M1086.7,441.1v24.7c0,9.3-0.2,17-0.7,24.8l0.2,0.1c3-6.1,6.6-12.4,10.9-19.4l19-30.2h7.6v58.6h-7.1v-25
			c0-9.5,0.1-16.4,0.7-23.8l-0.3-0.1c-2.9,6.4-6.9,13.2-10.9,19.7l-18.3,29.1h-8.1v-58.6H1086.7z"/>
		<path d="M1167.1,472.2h-22.8v21.1h25.4v6.3h-33v-58.6h31.6v6.3h-24.1v18.5h22.8V472.2z"/>
	</g>
</g>
</svg>
